<svg xmlns="http://www.w3.org/2000/svg" xmlns:xlink="http://www.w3.org/1999/xlink" contentScriptType="application/ecmascript" contentStyleType="text/css" height="250" preserveAspectRatio="none" style="width:768px;height:250px;background:#FFFFFF;" version="1.1" viewBox="0 0 768 250" width="768" zoomAndPan="magnify"><defs><filter height="300%" id="fqjs4cq0kfo5o" width="300%" x="-1" y="-1"><feGaussianBlur result="blurOut" stdDeviation="2.0"/><feColorMatrix in="blurOut" result="blurOut2" type="matrix" values="0 0 0 0 0 0 0 0 0 0 0 0 0 0 0 0 0 0 .4 0"/><feOffset dx="4.0" dy="4.0" in="blurOut2" result="blurOut3"/><feBlend in="SourceGraphic" in2="blurOut3" mode="normal"/></filter></defs><g><line style="stroke:#A80036;stroke-width:1.0;stroke-dasharray:5.0,5.0;" x1="453" x2="453" y1="40.2969" y2="206.8281"/><line style="stroke:#A80036;stroke-width:1.0;stroke-dasharray:5.0,5.0;" x1="637" x2="637" y1="40.2969" y2="206.8281"/><rect fill="#FEFECE" filter="url(#fqjs4cq0kfo5o)" height="30.2969" style="stroke:#A80036;stroke-width:1.5;" width="57" x="423" y="5"/><text fill="#000000" font-family="sans-serif" font-size="14" lengthAdjust="spacing" textLength="43" x="430" y="24.9951">Client</text><rect fill="#FEFECE" filter="url(#fqjs4cq0kfo5o)" height="30.2969" style="stroke:#A80036;stroke-width:1.5;" width="57" x="423" y="205.8281"/><text fill="#000000" font-family="sans-serif" font-size="14" lengthAdjust="spacing" textLength="43" x="430" y="225.8232">Client</text><rect fill="#FEFECE" filter="url(#fqjs4cq0kfo5o)" height="30.2969" style="stroke:#A80036;stroke-width:1.5;" width="61" x="605" y="5"/><text fill="#000000" font-family="sans-serif" font-size="14" lengthAdjust="spacing" textLength="47" x="612" y="24.9951">Server</text><rect fill="#FEFECE" filter="url(#fqjs4cq0kfo5o)" height="30.2969" style="stroke:#A80036;stroke-width:1.5;" width="61" x="605" y="205.8281"/><text fill="#000000" font-family="sans-serif" font-size="14" lengthAdjust="spacing" textLength="47" x="612" y="225.8232">Server</text><polygon fill="#A80036" points="625.5,72.4297,635.5,76.4297,625.5,80.4297,629.5,76.4297" style="stroke:#A80036;stroke-width:1.0;"/><line style="stroke:#A80036;stroke-width:1.0;" x1="453.5" x2="631.5" y1="76.4297" y2="76.4297"/><text fill="#000000" font-family="sans-serif" font-size="13" lengthAdjust="spacing" textLength="150" x="460.5" y="71.3638">Authentication Request</text><path d="M5,55.2969 L5,80.2969 L445,80.2969 L445,65.2969 L435,55.2969 L5,55.2969 " fill="#FBFB77" filter="url(#fqjs4cq0kfo5o)" style="stroke:#A80036;stroke-width:1.0;"/><path d="M435,55.2969 L435,65.2969 L445,65.2969 L435,55.2969 " fill="#FBFB77" style="stroke:#A80036;stroke-width:1.0;"/><text fill="#000000" font-family="sans-serif" font-size="13" lengthAdjust="spacing" textLength="419" x="11" y="72.3638">POST /login {"username": "nohattee", "password": "1qaz@WSX"}</text><polygon fill="#A80036" points="464.5,111.5625,454.5,115.5625,464.5,119.5625,460.5,115.5625" style="stroke:#A80036;stroke-width:1.0;"/><line style="stroke:#A80036;stroke-width:1.0;stroke-dasharray:2.0,2.0;" x1="458.5" x2="636.5" y1="115.5625" y2="115.5625"/><text fill="#000000" font-family="sans-serif" font-size="13" lengthAdjust="spacing" textLength="160" x="470.5" y="110.4966">Authentication Response</text><path d="M642,94.4297 L642,119.4297 L759,119.4297 L759,104.4297 L749,94.4297 L642,94.4297 " fill="#FBFB77" filter="url(#fqjs4cq0kfo5o)" style="stroke:#A80036;stroke-width:1.0;"/><path d="M749,94.4297 L749,104.4297 L759,104.4297 L749,94.4297 " fill="#FBFB77" style="stroke:#A80036;stroke-width:1.0;"/><text fill="#000000" font-family="sans-serif" font-size="13" lengthAdjust="spacing" textLength="96" x="648" y="111.4966">with JWT token</text><polygon fill="#A80036" points="625.5,150.6953,635.5,154.6953,625.5,158.6953,629.5,154.6953" style="stroke:#A80036;stroke-width:1.0;"/><line style="stroke:#A80036;stroke-width:1.0;" x1="453.5" x2="631.5" y1="154.6953" y2="154.6953"/><text fill="#000000" font-family="sans-serif" font-size="13" lengthAdjust="spacing" textLength="117" x="460.5" y="149.6294">Create a new task</text><path d="M104,133.5625 L104,158.5625 L444,158.5625 L444,143.5625 L434,133.5625 L104,133.5625 " fill="#FBFB77" filter="url(#fqjs4cq0kfo5o)" style="stroke:#A80036;stroke-width:1.0;"/><path d="M434,133.5625 L434,143.5625 L444,143.5625 L434,133.5625 " fill="#FBFB77" style="stroke:#A80036;stroke-width:1.0;"/><text fill="#000000" font-family="sans-serif" font-size="13" lengthAdjust="spacing" textLength="319" x="110" y="150.6294">POST /tasks {"content": "This is just for the test"}</text><polygon fill="#A80036" points="464.5,184.8281,454.5,188.8281,464.5,192.8281,460.5,188.8281" style="stroke:#A80036;stroke-width:1.0;"/><line style="stroke:#A80036;stroke-width:1.0;stroke-dasharray:2.0,2.0;" x1="458.5" x2="636.5" y1="188.8281" y2="188.8281"/><text fill="#000000" font-family="sans-serif" font-size="13" lengthAdjust="spacing" textLength="122" x="470.5" y="183.7622">New task response</text><!--MD5=[fab85bd48b1ddb9d004fdd7da291d966]
@startuml
Client -> Server: Authentication Request
note left: POST /login {"username": "nohattee", "password": "1qaz@WSX"}
Client <- - Server: Authentication Response
note right: with JWT token

Client -> Server: Create a new task
note left: POST /tasks {"content": "This is just for the test"}
Client <- - Server : New task response
@enduml

PlantUML version 1.2021.12(Tue Oct 05 16:01:58 UTC 2021)
(GPL source distribution)
Java Runtime: Java(TM) SE Runtime Environment
JVM: Java HotSpot(TM) 64-Bit Server VM
Default Encoding: UTF-8
Language: en
Country: US
--></g></svg>