<svg xmlns="http://www.w3.org/2000/svg" xmlns:xlink="http://www.w3.org/1999/xlink" xmlns:lucid="lucid" width="1156" height="1004"><g transform="translate(-180 -180)" lucid:page-tab-id="0_0"><path d="M0 0h1760v1360H0z" fill="#fff"/><path d="M698.7 342.5v9.96m0 9.96v19.9m0 9.97v19.9m0 9.97v19.92m0 9.95v19.9m0 9.97v19.92m0 9.96v19.92m0 9.95v19.92m0 9.95v19.92m0 9.96v19.9m0 9.97v19.92m0 9.96v19.92m0 9.96v19.9m0 9.97v19.92m0 9.96v19.93m0 9.95v19.92m0 9.96v19.92m0 9.96v19.9m0 9.97v19.93m0 9.96v19.9m0 9.97v19.9m0 9.97v19.92m0 9.96v19.92m0 9.95v19.9m0 9.97v19.92m0 9.95v19.9m0 9.97v9.96" stroke="#333" fill="none"/><path d="M699.2 342.5h-1v-.5h1zM699.2 1119.78h-1v-.5h1z" stroke="#333" stroke-width=".05" fill="#333"/><path d="M679.76 417.73c0-4.42 3.58-8 8-8h24c4.42 0 8 3.58 8 8v693.55c0 4.42-3.58 8-8 8h-24c-4.42 0-8-3.58-8-8z" stroke="#f2f2f2" fill="#ced4db"/><path d="M1059.52 342.5v10.17m0 10.16v20.34m0 10.17v20.33m0 10.17v20.33m0 10.17v20.34m0 10.16v20.34m0 10.16v20.34m0 10.17v20.33m0 10.17v20.33m0 10.17v20.34m0 10.15v20.34m0 10.15v20.34m0 10.16v10.16l.93 2.26 2.26.93 2.26.94.93 2.25v10.16m0 10.17v20.33m0 10.17v20.33m0 10.17v20.34m0 10.16v20.34m0 10.16v20.34m0 10.17v20.33m0 10.17v20.33m0 10.17v20.34m0 10.16v20.34m0 10.16v20.34m0 10.17v20.33m0 10.17v10.17" stroke="#333" fill="none"/><path d="M1060.02 342.5h-1v-.5h1z" stroke="#333" stroke-width=".05" fill="#333"/><path d="M1065.9 1080.9v.52" stroke="#333" fill="none"/><path d="M1039.52 477.4c0-4.42 3.58-8 8-8h24c4.42 0 8 3.58 8 8v633.88c0 4.42-3.58 8-8 8h-24c-4.42 0-8-3.58-8-8z" stroke="#f2f2f2" fill="#ced4db"/><path d="M603.65 228c0-4.42 3.58-8 8-8h174.07c4.42 0 8 3.58 8 8v106c0 4.42-3.58 8-8 8H611.65c-4.42 0-8-3.58-8-8z" stroke="#000" stroke-opacity="0" fill="#ffaf28"/><use xlink:href="#a" transform="matrix(1,0,0,1,611.6496896262572,228) translate(62.88271604938271 56.55555555555555)"/><path d="M964.48 228c0-4.42 3.6-8 8-8h174.08c4.42 0 8 3.58 8 8v106c0 4.42-3.58 8-8 8H972.48c-4.4 0-8-3.58-8-8z" stroke="#000" stroke-opacity="0" fill="#ffcc78"/><use xlink:href="#b" transform="matrix(1,0,0,1,972.4836879544767,228) translate(59.84567901234567 56.55555555555555)"/><path d="M1325.32 228c0-4.42 3.58-8 8-8h174.07c4.4 0 8 3.58 8 8v106c0 4.42-3.6 8-8 8H1333.3c-4.42 0-8-3.58-8-8z" stroke="#000" stroke-opacity="0" fill="#ffe6be"/><use xlink:href="#c" transform="matrix(1,0,0,1,1333.3176862826967,228) translate(61.845679012345684 56.55555555555555)"/><path d="M720.76 514.7h301.88" stroke="#333" fill="none"/><path d="M720.77 515.2h-.5v-1h.5z" stroke="#333" stroke-width=".05" fill="#333"/><path d="M1037.4 514.7l-14.26 4.64v-9.27z" stroke="#333" fill="#333"/><use xlink:href="#d" transform="matrix(1,0,0,1,787.8632983466756,518.7012985258556) translate(0.0049999999999954525 14.222222222222223)"/><use xlink:href="#e" transform="matrix(1,0,0,1,787.8632983466756,518.7012985258556) translate(117.43709876543213 14.222222222222223)"/><path d="M220 488.27h450.05l9.95 9.95V538H220z" fill="#ffeca9"/><path d="M670.05 488.27v9.95H680" fill="#ffeca9"/><use xlink:href="#f" transform="matrix(1,0,0,1,225,493.2706189315984) translate(6.25 24.4)"/><use xlink:href="#g" transform="matrix(1,0,0,1,225,493.2706189315984) translate(47.85 24.4)"/><path d="M1100 574.74h150.05l9.95 9.95v39.77h-160z" fill="#ffeca9"/><path d="M1250.05 574.74v9.95h9.95" fill="#ffeca9"/><use xlink:href="#h" transform="matrix(1,0,0,1,1105,579.7403217448349) translate(12.299999999999997 24.4)"/><use xlink:href="#i" transform="matrix(1,0,0,1,1105,579.7403217448349) translate(49.2 24.4)"/><use xlink:href="#j" transform="matrix(1,0,0,1,1105,579.7403217448349) translate(90.75 24.4)"/><path d="M1038.52 595.44H736.64" stroke="#333" fill="none"/><path d="M1039.02 595.94h-.5v-1h.5z" stroke="#333" stroke-width=".05" fill="#333"/><path d="M721.88 595.44l14.26-4.64v9.27z" stroke="#333" fill="#333"/><use xlink:href="#d" transform="matrix(1,0,0,1,780.9497180997621,599.4387571181467) translate(0.0049999999999954525 14.222222222222223)"/><use xlink:href="#k" transform="matrix(1,0,0,1,780.9497180997621,599.4387571181467) translate(117.43709876543213 14.222222222222223)"/><path d="M720.76 680h301.88" stroke="#333" fill="none"/><path d="M720.77 680.5h-.5v-1h.5z" stroke="#333" stroke-width=".05" fill="#333"/><path d="M1037.4 680l-14.26 4.64v-9.28z" stroke="#333" fill="#333"/><use xlink:href="#l" transform="matrix(1,0,0,1,776.554656371367,684) translate(0.0049999999999954525 14.222222222222223)"/><use xlink:href="#m" transform="matrix(1,0,0,1,776.554656371367,684) translate(79.85685185185184 14.222222222222223)"/><use xlink:href="#n" transform="matrix(1,0,0,1,776.554656371367,684) translate(144.94327160493827 14.222222222222223)"/><use xlink:href="#o" transform="matrix(1,0,0,1,776.554656371367,684) translate(164.69635802469136 14.222222222222223)"/><use xlink:href="#p" transform="matrix(1,0,0,1,776.554656371367,684) translate(18.227222222222224 35.55555555555556)"/><use xlink:href="#q" transform="matrix(1,0,0,1,776.554656371367,684) translate(23.165493827160496 35.55555555555556)"/><use xlink:href="#r" transform="matrix(1,0,0,1,776.554656371367,684) translate(59.609938271604946 35.55555555555556)"/><use xlink:href="#s" transform="matrix(1,0,0,1,776.554656371367,684) translate(89.23956790123458 35.55555555555556)"/><use xlink:href="#t" transform="matrix(1,0,0,1,776.554656371367,684) translate(153.38771604938273 35.55555555555556)"/><path d="M220 653.4h449.36L680 664.04v42.56H220z" fill="#ffeca9"/><path d="M669.36 653.4v10.64H680" fill="#ffeca9"/><use xlink:href="#f" transform="matrix(1,0,0,1,225,658.4) translate(72.025 25.4)"/><use xlink:href="#u" transform="matrix(1,0,0,1,225,658.4) translate(113.625 25.4)"/><path d="M1038.52 760H736.64" stroke="#333" fill="none"/><path d="M1039.02 760.5h-.5v-1h.5z" stroke="#333" stroke-width=".05" fill="#333"/><path d="M721.88 760l14.26-4.64v9.28z" stroke="#333" fill="#333"/><use xlink:href="#v" transform="matrix(1,0,0,1,793.2460143960584,764) translate(0.0049999999999954525 14.222222222222223)"/><use xlink:href="#w" transform="matrix(1,0,0,1,793.2460143960584,764) translate(32.54820987654321 14.222222222222223)"/><use xlink:href="#x" transform="matrix(1,0,0,1,793.2460143960584,764) translate(78.96796296296296 14.222222222222223)"/><use xlink:href="#y" transform="matrix(1,0,0,1,793.2460143960584,764) translate(103.65932098765433 14.222222222222223)"/><use xlink:href="#t" transform="matrix(1,0,0,1,793.2460143960584,764) translate(138.22722222222222 14.222222222222223)"/><path d="M1100 739.64h150.05l9.95 9.95v39.77h-160z" fill="#ffeca9"/><path d="M1250.05 739.64v9.95h9.95" fill="#ffeca9"/><g><use xlink:href="#z" transform="matrix(1,0,0,1,1105,744.6399971513371) translate(41.05 24.4)"/><use xlink:href="#A" transform="matrix(1,0,0,1,1105,744.6399971513371) translate(67.94999999999999 24.4)"/></g><path d="M219.76 822h449.36l10.64 10.64v42.56h-460z" fill="#ffeca9"/><path d="M669.12 822v10.64h10.64" fill="#ffeca9"/><g><use xlink:href="#B" transform="matrix(1,0,0,1,224.76122866911902,826.9987375787323) translate(91.57499999999999 25.4)"/><use xlink:href="#C" transform="matrix(1,0,0,1,224.76122866911902,826.9987375787323) translate(145.17499999999998 25.4)"/><use xlink:href="#D" transform="matrix(1,0,0,1,224.76122866911902,826.9987375787323) translate(197.17499999999998 25.4)"/><use xlink:href="#E" transform="matrix(1,0,0,1,224.76122866911902,826.9987375787323) translate(268.775 25.4)"/><use xlink:href="#F" transform="matrix(1,0,0,1,224.76122866911902,826.9987375787323) translate(313.075 25.4)"/></g><path d="M720.76 850.07h301.88" stroke="#333" fill="none"/><path d="M720.77 850.57h-.5v-1h.5z" stroke="#333" stroke-width=".05" fill="#333"/><path d="M1037.4 850.07l-14.26 4.64v-9.26z" stroke="#333" fill="#333"/><g><use xlink:href="#G" transform="matrix(1,0,0,1,808.1102119269226,854.0722803707571) translate(0.0049999999999954525 14.222222222222223)"/><use xlink:href="#H" transform="matrix(1,0,0,1,808.1102119269226,854.0722803707571) translate(58.177839506172845 14.222222222222223)"/><use xlink:href="#I" transform="matrix(1,0,0,1,808.1102119269226,854.0722803707571) translate(72.99265432098767 14.222222222222223)"/><use xlink:href="#J" transform="matrix(1,0,0,1,808.1102119269226,854.0722803707571) translate(110.47413580246916 14.222222222222223)"/></g><path d="M1100 904.54h150.05l9.95 9.95v39.77h-160z" fill="#ffeca9"/><path d="M1250.05 904.54v9.95h9.95" fill="#ffeca9"/><g><use xlink:href="#K" transform="matrix(1,0,0,1,1105,909.5396725578393) translate(40.025 24.4)"/><use xlink:href="#L" transform="matrix(1,0,0,1,1105,909.5396725578393) translate(77.975 24.4)"/></g><path d="M1038.52 932.36H736.64" stroke="#333" fill="none"/><path d="M1039.02 932.86h-.5v-1h.5z" stroke="#333" stroke-width=".05" fill="#333"/><path d="M721.88 932.36l14.26-4.63V937z" stroke="#333" fill="#333"/><g><use xlink:href="#M" transform="matrix(1,0,0,1,804.6781131614905,936.3623823975151) translate(0.0049999999999954525 14.222222222222223)"/><use xlink:href="#N" transform="matrix(1,0,0,1,804.6781131614905,936.3623823975151) translate(53.19018518518519 14.222222222222223)"/><use xlink:href="#J" transform="matrix(1,0,0,1,804.6781131614905,936.3623823975151) translate(117.33833333333334 14.222222222222223)"/></g><defs><path fill="#333" d="M161-211c-63 0-91 46-91 110 0 39 17 65 58 64 38-1 60-20 74-45l40 20C220-23 184 0 125 4 9 13-10-144 57-208c33-50 166-62 196-1 4 8 9 18 11 27l-48 12c-6-24-25-41-55-41" id="O"/><path fill="#333" d="M6 0l51-261h49L55 0H6" id="P"/><path fill="#333" d="M50-224l7-37h49l-7 37H50zM6 0l37-190h49L55 0H6" id="Q"/><path fill="#333" d="M114-194c63-2 87 48 72 110H63c-3 28 1 55 31 54 21-1 32-13 37-29l44 13C160-14 137 4 91 4 41 4 11-22 11-73c0-71 33-119 103-121zm30 77c14-47-50-61-67-22-3 6-6 13-8 22h75" id="R"/><path fill="#333" d="M151-194c95 0 34 128 28 194h-49l25-134c0-29-45-25-59-9C67-111 69-48 56 0H6l36-190h47l-4 32c15-20 33-36 66-36" id="S"/><path fill="#333" d="M72-63c-8 23 5 39 32 30L98-1C54 14 12-6 23-64l18-93H15l7-33h28l24-45h31l-8 45h35l-6 33H90" id="T"/><g id="a"><use transform="matrix(0.04938271604938272,0,0,0.04938271604938272,0,0)" xlink:href="#O"/><use transform="matrix(0.04938271604938272,0,0,0.04938271604938272,12.790123456790125,0)" xlink:href="#P"/><use transform="matrix(0.04938271604938272,0,0,0.04938271604938272,17.7283950617284,0)" xlink:href="#Q"/><use transform="matrix(0.04938271604938272,0,0,0.04938271604938272,22.66666666666667,0)" xlink:href="#R"/><use transform="matrix(0.04938271604938272,0,0,0.04938271604938272,32.543209876543216,0)" xlink:href="#S"/><use transform="matrix(0.04938271604938272,0,0,0.04938271604938272,43.35802469135803,0)" xlink:href="#T"/><path fill="#333" d="M-.9.95h51.02v1.87h-51z"/></g><path fill="#333" d="M178-136c88 48 22 151-73 140C49-3 12-15 4-64l51-9c1 50 111 53 115 3-16-63-132-20-133-112 0-93 190-91 199-10l-50 12c-4-41-93-50-97-4 7 38 59 32 89 48" id="U"/><path fill="#333" d="M84-151c13-25 34-51 72-40l-8 41C67-170 71-64 56 0H6l36-190h47" id="V"/><path fill="#333" d="M109 0H50L19-190h51L86-37l77-153h54" id="W"/><g id="b"><use transform="matrix(0.04938271604938272,0,0,0.04938271604938272,0,0)" xlink:href="#U"/><use transform="matrix(0.04938271604938272,0,0,0.04938271604938272,11.851851851851853,0)" xlink:href="#R"/><use transform="matrix(0.04938271604938272,0,0,0.04938271604938272,21.7283950617284,0)" xlink:href="#V"/><use transform="matrix(0.04938271604938272,0,0,0.04938271604938272,28.64197530864198,0)" xlink:href="#W"/><use transform="matrix(0.04938271604938272,0,0,0.04938271604938272,38.518518518518526,0)" xlink:href="#R"/><use transform="matrix(0.04938271604938272,0,0,0.04938271604938272,48.39506172839507,0)" xlink:href="#V"/><path fill="#333" d="M-.9.95h57.1v1.87H-.9z"/></g><path fill="#333" d="M20-101c0-91 52-143 145-150 126-9 127 168 53 223-23 17-55 32-93 32C57 4 20-33 20-101zm216-33c5-57-18-91-73-90-77 1-110 51-110 125 0 49 23 75 73 75 72-1 104-45 110-110" id="X"/><path fill="#333" d="M68-162c25-46 127-43 121 31C183-60 169 1 98 4 69 5 53-11 43-31L36 0H5l52-261h31zm88 36c2-27-9-43-34-43-55 0-70 51-70 103 0 29 15 45 43 46 52 0 58-58 61-106" id="Y"/><path fill="#333" d="M51-231l6-30h31l-6 30H51zM33 24C28 60 2 84-40 72c3-12-1-29 18-22C-5 49-1 37 2 19l41-209h32" id="Z"/><path fill="#333" d="M111-194c62-3 86 47 72 106H45c-7 38 6 69 45 68 27-1 43-14 53-32l24 11C152-15 129 4 87 4 38 3 12-23 12-71c0-70 32-119 99-123zm44 81c14-66-71-72-95-28-4 8-8 17-11 28h106" id="aa"/><path fill="#333" d="M44-68c0 29 11 47 38 47 30 0 42-19 51-41l28 9C148-21 126 4 82 4 31 4 10-29 12-85c3-77 74-140 146-93 12 8 15 23 18 40l-31 5c-1-22-13-36-36-36-52 0-65 49-65 101" id="ab"/><path fill="#333" d="M51-54c-9 22 5 41 31 30L79-1C43 14 10-4 19-52l22-115H19l5-23h22l19-43h21l-9 43h35l-4 23H73" id="ac"/><g id="c"><use transform="matrix(0.04938271604938272,0,0,0.04938271604938272,0,0)" xlink:href="#X"/><use transform="matrix(0.04938271604938272,0,0,0.04938271604938272,13.827160493827162,0)" xlink:href="#Y"/><use transform="matrix(0.04938271604938272,0,0,0.04938271604938272,23.703703703703706,0)" xlink:href="#Z"/><use transform="matrix(0.04938271604938272,0,0,0.04938271604938272,27.60493827160494,0)" xlink:href="#aa"/><use transform="matrix(0.04938271604938272,0,0,0.04938271604938272,37.48148148148148,0)" xlink:href="#ab"/><use transform="matrix(0.04938271604938272,0,0,0.04938271604938272,46.37037037037037,0)" xlink:href="#ac"/><path fill="#333" d="M-.9 1.23h53.1v1.3H-.9z"/></g><path fill="#333" d="M187 0l-14-72H61L19 0h-37l149-248h38L221 0h-34zm-19-99l-22-123L76-99h92" id="ad"/><path fill="#333" d="M67 3c-93-2-31-127-26-193h32L48-50c-3 39 53 32 70 12 30-34 30-101 43-152h32L157 0h-30c1-10 6-24 4-33-14 20-29 37-64 36" id="ae"/><path fill="#333" d="M67-158c15-20 31-36 64-36 94 0 33 127 27 194h-32l25-140c3-38-53-32-70-12C52-117 51-51 37 0H6l51-261h31" id="af"/><path fill="#333" d="M67-158c22-48 132-52 116 29L158 0h-32l25-140c3-38-53-32-70-12C52-117 51-52 38 0H6l36-190h30" id="ag"/><path fill="#333" d="M50-231l6-30h32l-6 30H50zM6 0l37-190h31L37 0H6" id="ah"/><path fill="#333" d="M165-48c-4 18 1 34 23 27l-3 20c-29 8-62 0-52-35h-2C116-14 99 4 63 4 30 4 8-16 8-49c0-68 71-67 138-67 10-26 0-56-31-54-26 1-42 9-47 31l-32-5c8-67 160-71 144 15-5 28-9 54-15 81zM42-50c3 52 80 24 89-6 7-12 7-24 11-38-47 1-103-4-100 44" id="ai"/><path fill="#333" d="M30-147c31-64 166-65 159 27C183-49 158 1 86 4 9 8 1-88 30-147zM88-20c53 0 68-48 68-100 0-31-11-51-44-50-52 1-68 46-68 97 0 32 13 53 44 53" id="aj"/><g id="d"><use transform="matrix(0.04938271604938272,0,0,0.04938271604938272,0,0)" xlink:href="#ad"/><use transform="matrix(0.04938271604938272,0,0,0.04938271604938272,11.851851851851853,0)" xlink:href="#ae"/><use transform="matrix(0.04938271604938272,0,0,0.04938271604938272,21.7283950617284,0)" xlink:href="#ac"/><use transform="matrix(0.04938271604938272,0,0,0.04938271604938272,26.666666666666668,0)" xlink:href="#af"/><use transform="matrix(0.04938271604938272,0,0,0.04938271604938272,36.543209876543216,0)" xlink:href="#aa"/><use transform="matrix(0.04938271604938272,0,0,0.04938271604938272,46.41975308641976,0)" xlink:href="#ag"/><use transform="matrix(0.04938271604938272,0,0,0.04938271604938272,56.2962962962963,0)" xlink:href="#ac"/><use transform="matrix(0.04938271604938272,0,0,0.04938271604938272,61.23456790123457,0)" xlink:href="#ah"/><use transform="matrix(0.04938271604938272,0,0,0.04938271604938272,65.13580246913581,0)" xlink:href="#ab"/><use transform="matrix(0.04938271604938272,0,0,0.04938271604938272,74.0246913580247,0)" xlink:href="#ai"/><use transform="matrix(0.04938271604938272,0,0,0.04938271604938272,83.90123456790124,0)" xlink:href="#ac"/><use transform="matrix(0.04938271604938272,0,0,0.04938271604938272,88.83950617283952,0)" xlink:href="#ah"/><use transform="matrix(0.04938271604938272,0,0,0.04938271604938272,92.74074074074076,0)" xlink:href="#aj"/><use transform="matrix(0.04938271604938272,0,0,0.04938271604938272,102.61728395061732,0)" xlink:href="#ag"/></g><path fill="#333" d="M249-183c0 48-29 72-75 77L221 0h-36l-43-103H65L45 0H11l48-248c83 2 190-17 190 65zm-34 3c0-55-74-39-127-41l-18 92c63-1 145 13 145-51" id="ak"/><path fill="#333" d="M133-28C103 26-5 8 13-77c13-62 24-115 90-117 29-1 46 15 56 35 2-12 6-24 8-34h31L144 75h-31zM45-64c-2 27 10 43 35 43 54-1 69-50 69-103 0-29-15-46-42-46-53-1-58 58-62 106" id="al"/><path fill="#333" d="M55-144c13 50 104 24 104 88C159 21 15 23 1-39l26-10c6 40 102 42 102-4-13-50-104-23-104-87 0-71 143-71 148-8l-29 4c-5-35-85-37-89 0" id="am"/><g id="e"><use transform="matrix(0.04938271604938272,0,0,0.04938271604938272,0,0)" xlink:href="#ak"/><use transform="matrix(0.04938271604938272,0,0,0.04938271604938272,12.790123456790125,0)" xlink:href="#aa"/><use transform="matrix(0.04938271604938272,0,0,0.04938271604938272,22.66666666666667,0)" xlink:href="#al"/><use transform="matrix(0.04938271604938272,0,0,0.04938271604938272,32.543209876543216,0)" xlink:href="#ae"/><use transform="matrix(0.04938271604938272,0,0,0.04938271604938272,42.41975308641976,0)" xlink:href="#aa"/><use transform="matrix(0.04938271604938272,0,0,0.04938271604938272,52.2962962962963,0)" xlink:href="#am"/><use transform="matrix(0.04938271604938272,0,0,0.04938271604938272,61.18518518518519,0)" xlink:href="#ac"/></g><path d="M143 4C61 4 22-44 18-125c-5-107 100-154 193-111 17 8 29 25 37 43l-32 9c-13-25-37-40-76-40-61 0-88 39-88 99 0 61 29 100 91 101 35 0 62-11 79-27v-45h-74v-28h105v86C228-13 192 4 143 4" id="an"/><path d="M30 0v-248h187v28H63v79h144v27H63v87h162V0H30" id="ao"/><path d="M127-220V0H93v-220H8v-28h204v28h-85" id="ap"/><g id="f"><use transform="matrix(0.05,0,0,0.05,0,0)" xlink:href="#an"/><use transform="matrix(0.05,0,0,0.05,14,0)" xlink:href="#ao"/><use transform="matrix(0.05,0,0,0.05,26,0)" xlink:href="#ap"/></g><path d="M0 4l72-265h28L28 4H0" id="aq"/><path d="M24 0v-261h32V0H24" id="ar"/><path d="M100-194c62-1 85 37 85 99 1 63-27 99-86 99S16-35 15-95c0-66 28-99 85-99zM99-20c44 1 53-31 53-75 0-43-8-75-51-75s-53 32-53 75 10 74 51 75" id="as"/><path d="M177-190C167-65 218 103 67 71c-23-6-38-20-44-43l32-5c15 47 100 32 89-28v-30C133-14 115 1 83 1 29 1 15-40 15-95c0-56 16-97 71-98 29-1 48 16 59 35 1-10 0-23 2-32h30zM94-22c36 0 50-32 50-73 0-42-14-75-50-75-39 0-46 34-46 75s6 73 46 73" id="at"/><path d="M24-231v-30h32v30H24zM24 0v-190h32V0H24" id="au"/><path d="M117-194c89-4 53 116 60 194h-32v-121c0-31-8-49-39-48C34-167 62-67 57 0H25l-1-190h30c1 10-1 24 2 32 11-22 29-35 61-36" id="av"/><path d="M103-251c84 0 111 97 45 133-19 10-37 24-39 52H78c0-63 77-55 77-114 0-30-21-42-52-43-32 0-53 17-56 46l-32-2c7-45 34-72 88-72zM77 0v-35h34V0H77" id="aw"/><path d="M84 4C-5 8 30-112 23-190h32v120c0 31 7 50 39 49 72-2 45-101 50-169h31l1 190h-30c-1-10 1-25-2-33-11 22-28 36-60 37" id="ax"/><path d="M135-143c-3-34-86-38-87 0 15 53 115 12 119 90S17 21 10-45l28-5c4 36 97 45 98 0-10-56-113-15-118-90-4-57 82-63 122-42 12 7 21 19 24 35" id="ay"/><path d="M100-194c63 0 86 42 84 106H49c0 40 14 67 53 68 26 1 43-12 49-29l28 8c-11 28-37 45-77 45C44 4 14-33 15-96c1-61 26-98 85-98zm52 81c6-60-76-77-97-28-3 7-6 17-6 28h103" id="az"/><path d="M114-163C36-179 61-72 57 0H25l-1-190h30c1 12-1 29 2 39 6-27 23-49 58-41v29" id="aA"/><path d="M-5 72V49h209v23H-5" id="aB"/><path d="M85-194c31 0 48 13 60 33l-1-100h32l1 261h-30c-2-10 0-23-3-31C134-8 116 4 85 4 32 4 16-35 15-94c0-66 23-100 70-100zm9 24c-40 0-46 34-46 75 0 40 6 74 45 74 42 0 51-32 51-76 0-42-9-74-50-73" id="aC"/><path d="M18-150v-26h174v26H18zm0 90v-26h174v26H18" id="aD"/><path d="M143 0L79-87 56-68V0H24v-261h32v163l83-92h37l-77 82L181 0h-38" id="aE"/><path d="M106-169C34-169 62-67 57 0H25v-261h32l-1 103c12-21 28-36 61-36 89 0 53 116 60 194h-32v-121c2-32-8-49-39-48" id="aF"/><path d="M141 0L90-78 38 0H4l68-98-65-92h35l48 74 47-74h35l-64 92 68 98h-35" id="aG"/><path d="M234-2c-28 10-62 0-77-18C117 19 8 12 13-65c3-43 29-61 60-76-25-40-17-114 47-108 35 3 59 15 59 50 0 44-40 53-71 69 14 26 32 50 51 72 14-21 24-43 30-72l26 8c-9 33-21 57-38 82 13 13 33 22 57 15v23zM97-151c25-10 52-18 56-48-1-18-13-29-33-29-42 0-39 50-23 77zM42-66c-3 51 71 58 98 28-20-24-41-51-56-80-23 10-40 24-42 52" id="aH"/><path d="M115-194c55 1 70 41 70 98S169 2 115 4C84 4 66-9 55-30l1 105H24l-1-265h31l2 30c10-21 28-34 59-34zm-8 174c40 0 45-34 45-75s-6-73-45-74c-42 0-51 32-51 76 0 43 10 73 51 73" id="aI"/><path d="M141-36C126-15 110 5 73 4 37 3 15-17 15-53c-1-64 63-63 125-63 3-35-9-54-41-54-24 1-41 7-42 31l-33-3c5-37 33-52 76-52 45 0 72 20 72 64v82c-1 20 7 32 28 27v20c-31 9-61-2-59-35zM48-53c0 20 12 33 32 33 41-3 63-29 60-74-43 2-92-5-92 41" id="aJ"/><path d="M206 0h-36l-40-164L89 0H53L-1-190h32L70-26l43-164h34l41 164 42-164h31" id="aK"/><path d="M140-251c81 0 123 46 123 126C263-53 228-8 163 1c7 30 30 48 69 40v23c-55 16-95-15-103-61C56-3 17-48 17-125c0-80 42-126 123-126zm0 227c63 0 89-41 89-101s-29-99-89-99c-61 0-89 39-89 99S79-25 140-24" id="aL"/><path d="M145-31C134-9 116 4 85 4 32 4 16-35 15-94c0-59 17-99 70-100 32-1 48 14 60 33 0-11-1-24 2-32h30l-1 268h-32zM93-21c41 0 51-33 51-76s-8-73-50-73c-40 0-46 35-46 75s5 74 45 74" id="aM"/><path d="M198-261c85 0 136 45 136 128 0 61-22 111-78 115-29 2-39-18-37-44-12 23-32 44-66 44-41 0-58-28-58-68 0-60 30-105 88-108 29-1 43 15 54 32l7-28h28c-9 45-23 84-27 134-1 11 6 17 14 16 39-4 51-48 51-92 0-69-42-107-112-107-93 0-145 59-145 153C53-15 94 26 168 27c43 0 78-13 106-28l9 19c-30 18-67 32-115 32C79 50 28-1 28-86c0-107 62-175 170-175zM158-41c46 0 70-43 70-90 0-26-17-40-43-40-44 0-59 41-61 85-1 26 9 45 34 45" id="aN"/><path d="M27 0v-27h64v-190l-56 39v-29l58-41h29v221h61V0H27" id="aO"/><path d="M101-251c82-7 93 87 43 132L82-64C71-53 59-42 53-27h129V0H18c2-99 128-94 128-182 0-28-16-43-45-43s-46 15-49 41l-32-3c6-41 34-60 81-64" id="aP"/><path d="M126-127c33 6 58 20 58 59 0 88-139 92-164 29-3-8-5-16-6-25l32-3c6 27 21 44 54 44 32 0 52-15 52-46 0-38-36-46-79-43v-28c39 1 72-4 72-42 0-27-17-43-46-43-28 0-47 15-49 41l-32-3c6-42 35-63 81-64 48-1 79 21 79 65 0 36-21 52-52 59" id="aQ"/><path d="M155-56V0h-30v-56H8v-25l114-167h33v167h35v25h-35zm-30-156c-27 46-58 90-88 131h88v-131" id="aR"/><path d="M54-142c48-35 137-8 131 61C196 18 31 33 14-55l32-4c7 23 22 37 52 37 35-1 51-22 54-58 4-55-73-65-99-34H22l8-134h141v27H59" id="aS"/><path d="M110-160c48 1 74 30 74 79 0 53-28 85-80 85-65 0-83-55-86-122-5-90 50-162 133-122 14 7 22 21 27 39l-31 6c-5-40-67-38-82-6-9 19-15 44-15 74 11-20 30-34 60-33zm-7 138c34 0 49-23 49-58s-16-56-50-56c-29 0-50 16-49 49 1 36 15 65 50 65" id="aT"/><path d="M64 0c3-98 48-159 88-221H18v-27h164v26C143-157 98-101 97 0H64" id="aU"/><g id="g"><use transform="matrix(0.05,0,0,0.05,0,0)" xlink:href="#aq"/><use transform="matrix(0.05,0,0,0.05,5,0)" xlink:href="#ar"/><use transform="matrix(0.05,0,0,0.05,8.95,0)" xlink:href="#as"/><use transform="matrix(0.05,0,0,0.05,18.95,0)" xlink:href="#at"/><use transform="matrix(0.05,0,0,0.05,28.950000000000003,0)" xlink:href="#au"/><use transform="matrix(0.05,0,0,0.05,32.9,0)" xlink:href="#av"/><use transform="matrix(0.05,0,0,0.05,42.9,0)" xlink:href="#aw"/><use transform="matrix(0.05,0,0,0.05,52.900000000000006,0)" xlink:href="#ax"/><use transform="matrix(0.05,0,0,0.05,62.900000000000006,0)" xlink:href="#ay"/><use transform="matrix(0.05,0,0,0.05,71.9,0)" xlink:href="#az"/><use transform="matrix(0.05,0,0,0.05,81.9,0)" xlink:href="#aA"/><use transform="matrix(0.05,0,0,0.05,87.85000000000001,0)" xlink:href="#aB"/><use transform="matrix(0.05,0,0,0.05,97.85000000000001,0)" xlink:href="#au"/><use transform="matrix(0.05,0,0,0.05,101.80000000000001,0)" xlink:href="#aC"/><use transform="matrix(0.05,0,0,0.05,111.80000000000001,0)" xlink:href="#aD"/><use transform="matrix(0.05,0,0,0.05,122.30000000000001,0)" xlink:href="#aE"/><use transform="matrix(0.05,0,0,0.05,131.3,0)" xlink:href="#aF"/><use transform="matrix(0.05,0,0,0.05,141.3,0)" xlink:href="#aG"/><use transform="matrix(0.05,0,0,0.05,150.3,0)" xlink:href="#au"/><use transform="matrix(0.05,0,0,0.05,154.25,0)" xlink:href="#av"/><use transform="matrix(0.05,0,0,0.05,164.25,0)" xlink:href="#at"/><use transform="matrix(0.05,0,0,0.05,174.25,0)" xlink:href="#av"/><use transform="matrix(0.05,0,0,0.05,184.25,0)" xlink:href="#aH"/><use transform="matrix(0.05,0,0,0.05,196.25,0)" xlink:href="#aI"/><use transform="matrix(0.05,0,0,0.05,206.25,0)" xlink:href="#aJ"/><use transform="matrix(0.05,0,0,0.05,216.25,0)" xlink:href="#ay"/><use transform="matrix(0.05,0,0,0.05,225.25,0)" xlink:href="#ay"/><use transform="matrix(0.05,0,0,0.05,234.25,0)" xlink:href="#aK"/><use transform="matrix(0.05,0,0,0.05,247.19999999999996,0)" xlink:href="#as"/><use transform="matrix(0.05,0,0,0.05,257.2,0)" xlink:href="#aA"/><use transform="matrix(0.05,0,0,0.05,263.15,0)" xlink:href="#aC"/><use transform="matrix(0.05,0,0,0.05,273.15,0)" xlink:href="#aD"/><use transform="matrix(0.05,0,0,0.05,283.65,0)" xlink:href="#aL"/><use transform="matrix(0.05,0,0,0.05,297.65,0)" xlink:href="#aM"/><use transform="matrix(0.05,0,0,0.05,307.65,0)" xlink:href="#aN"/><use transform="matrix(0.05,0,0,0.05,325.9,0)" xlink:href="#aO"/><use transform="matrix(0.05,0,0,0.05,335.9,0)" xlink:href="#aP"/><use transform="matrix(0.05,0,0,0.05,345.9,0)" xlink:href="#aQ"/><use transform="matrix(0.05,0,0,0.05,355.9,0)" xlink:href="#aR"/><use transform="matrix(0.05,0,0,0.05,365.9,0)" xlink:href="#aS"/><use transform="matrix(0.05,0,0,0.05,375.9,0)" xlink:href="#aT"/><use transform="matrix(0.05,0,0,0.05,385.9,0)" xlink:href="#aU"/></g><path d="M59-47c-2 24 18 29 38 22v24C64 9 27 4 27-40v-127H5v-23h24l9-43h21v43h35v23H59v120" id="aV"/><g id="h"><use transform="matrix(0.05,0,0,0.05,0,0)" xlink:href="#aK"/><use transform="matrix(0.05,0,0,0.05,12.950000000000001,0)" xlink:href="#au"/><use transform="matrix(0.05,0,0,0.05,16.900000000000002,0)" xlink:href="#aV"/><use transform="matrix(0.05,0,0,0.05,21.900000000000002,0)" xlink:href="#aF"/></g><path d="M153-248C145-148 188 4 80 4 36 3 13-21 6-62l32-5c4 25 16 42 43 43 27 0 39-20 39-49v-147H72v-28h81" id="aW"/><path d="M266 0h-40l-56-210L115 0H75L2-248h35L96-30l15-64 43-154h32l59 218 59-218h35" id="aX"/><g id="i"><use transform="matrix(0.05,0,0,0.05,0,0)" xlink:href="#aW"/><use transform="matrix(0.05,0,0,0.05,9,0)" xlink:href="#aX"/><use transform="matrix(0.05,0,0,0.05,25.950000000000003,0)" xlink:href="#ap"/></g><g id="j"><use transform="matrix(0.05,0,0,0.05,0,0)" xlink:href="#ap"/><use transform="matrix(0.05,0,0,0.05,8.950000000000001,0)" xlink:href="#as"/><use transform="matrix(0.05,0,0,0.05,18.950000000000003,0)" xlink:href="#aE"/><use transform="matrix(0.05,0,0,0.05,27.950000000000003,0)" xlink:href="#az"/><use transform="matrix(0.05,0,0,0.05,37.95,0)" xlink:href="#av"/></g><path fill="#333" d="M67-162c32-53 139-36 121 50C175-51 163 2 97 4 68 4 52-11 42-31 38 6 28 39 22 75H-9l50-265h29c-1 10 0 20-3 28zm89 36c0-26-10-43-35-43-54 0-67 50-69 103-1 29 14 45 42 46 53 0 62-58 62-106" id="aY"/><g id="k"><use transform="matrix(0.04938271604938272,0,0,0.04938271604938272,0,0)" xlink:href="#ak"/><use transform="matrix(0.04938271604938272,0,0,0.04938271604938272,12.790123456790125,0)" xlink:href="#aa"/><use transform="matrix(0.04938271604938272,0,0,0.04938271604938272,22.66666666666667,0)" xlink:href="#am"/><use transform="matrix(0.04938271604938272,0,0,0.04938271604938272,31.555555555555557,0)" xlink:href="#aY"/><use transform="matrix(0.04938271604938272,0,0,0.04938271604938272,41.4320987654321,0)" xlink:href="#aj"/><use transform="matrix(0.04938271604938272,0,0,0.04938271604938272,51.308641975308646,0)" xlink:href="#ag"/><use transform="matrix(0.04938271604938272,0,0,0.04938271604938272,61.18518518518519,0)" xlink:href="#am"/><use transform="matrix(0.04938271604938272,0,0,0.04938271604938272,70.07407407407408,0)" xlink:href="#aa"/></g><path fill="#333" d="M66-151c12-25 30-51 66-40l-6 26C45-176 58-65 38 0H6l36-190h30" id="aZ"/><path fill="#333" d="M89 0H52L20-190h33L74-25l89-165h34" id="ba"/><g id="l"><use transform="matrix(0.04938271604938272,0,0,0.04938271604938272,0,0)" xlink:href="#ak"/><use transform="matrix(0.04938271604938272,0,0,0.04938271604938272,12.790123456790125,0)" xlink:href="#aa"/><use transform="matrix(0.04938271604938272,0,0,0.04938271604938272,22.66666666666667,0)" xlink:href="#ac"/><use transform="matrix(0.04938271604938272,0,0,0.04938271604938272,27.604938271604947,0)" xlink:href="#aZ"/><use transform="matrix(0.04938271604938272,0,0,0.04938271604938272,33.48148148148149,0)" xlink:href="#ah"/><use transform="matrix(0.04938271604938272,0,0,0.04938271604938272,37.38271604938272,0)" xlink:href="#aa"/><use transform="matrix(0.04938271604938272,0,0,0.04938271604938272,47.25925925925927,0)" xlink:href="#ba"/><use transform="matrix(0.04938271604938272,0,0,0.04938271604938272,56.14814814814815,0)" xlink:href="#aa"/><use transform="matrix(0.04938271604938272,0,0,0.04938271604938272,66.0246913580247,0)" xlink:href="#am"/></g><path fill="#333" d="M248-111c6-24 9-61-24-58-72 9-57 108-77 169h-31l26-142c3-37-50-30-64-10C52-115 50-51 37 0H6l36-190h30c-1 10-6 24-4 32 13-43 101-52 105 5 13-22 29-41 61-41 90 0 28 129 23 194h-31" id="bb"/><g id="m"><use transform="matrix(0.04938271604938272,0,0,0.04938271604938272,0,0)" xlink:href="#ag"/><use transform="matrix(0.04938271604938272,0,0,0.04938271604938272,9.876543209876544,0)" xlink:href="#ae"/><use transform="matrix(0.04938271604938272,0,0,0.04938271604938272,19.75308641975309,0)" xlink:href="#bb"/><use transform="matrix(0.04938271604938272,0,0,0.04938271604938272,34.51851851851852,0)" xlink:href="#Y"/><use transform="matrix(0.04938271604938272,0,0,0.04938271604938272,44.39506172839506,0)" xlink:href="#aa"/><use transform="matrix(0.04938271604938272,0,0,0.04938271604938272,54.27160493827161,0)" xlink:href="#aZ"/></g><path fill="#333" d="M76-167L44 0H12l33-167H18l4-23h27c3-47 25-81 82-69l-4 24c-35-8-44 15-46 45h37l-5 23H76" id="bc"/><g id="n"><use transform="matrix(0.04938271604938272,0,0,0.04938271604938272,0,0)" xlink:href="#aj"/><use transform="matrix(0.04938271604938272,0,0,0.04938271604938272,9.876543209876544,0)" xlink:href="#bc"/></g><path fill="#333" d="M127 0L80-88 50-66 37 0H6l51-261h31L57-100l99-90h39l-93 82L161 0h-34" id="bd"/><g id="o"><use transform="matrix(0.04938271604938272,0,0,0.04938271604938272,0,0)" xlink:href="#ac"/><use transform="matrix(0.04938271604938272,0,0,0.04938271604938272,4.938271604938272,0)" xlink:href="#ai"/><use transform="matrix(0.04938271604938272,0,0,0.04938271604938272,14.814814814814817,0)" xlink:href="#am"/><use transform="matrix(0.04938271604938272,0,0,0.04938271604938272,23.703703703703706,0)" xlink:href="#bd"/><use transform="matrix(0.04938271604938272,0,0,0.04938271604938272,32.592592592592595,0)" xlink:href="#am"/></g><path fill="#333" d="M188 0h-37l-8-164L71 0H34L18-190h31l8 164 75-164h34l8 164 74-164h31" id="be"/><g id="q"><use transform="matrix(0.04938271604938272,0,0,0.04938271604938272,0,0)" xlink:href="#be"/><use transform="matrix(0.04938271604938272,0,0,0.04938271604938272,12.790123456790125,0)" xlink:href="#ah"/><use transform="matrix(0.04938271604938272,0,0,0.04938271604938272,16.69135802469136,0)" xlink:href="#ac"/><use transform="matrix(0.04938271604938272,0,0,0.04938271604938272,21.629629629629633,0)" xlink:href="#af"/></g><g id="r"><use transform="matrix(0.04938271604938272,0,0,0.04938271604938272,0,0)" xlink:href="#ac"/><use transform="matrix(0.04938271604938272,0,0,0.04938271604938272,4.938271604938272,0)" xlink:href="#af"/><use transform="matrix(0.04938271604938272,0,0,0.04938271604938272,14.814814814814817,0)" xlink:href="#aa"/></g><path fill="#333" d="M133-28C103 26-5 8 13-77c13-62 24-115 90-117 29-1 46 15 56 35l19-102h32L160 0h-30zM45-64c-2 27 10 43 35 43 54-1 69-50 69-103 0-29-15-46-42-46-53-1-58 58-62 106" id="bf"/><g id="s"><use transform="matrix(0.04938271604938272,0,0,0.04938271604938272,0,0)" xlink:href="#ab"/><use transform="matrix(0.04938271604938272,0,0,0.04938271604938272,8.88888888888889,0)" xlink:href="#aZ"/><use transform="matrix(0.04938271604938272,0,0,0.04938271604938272,14.765432098765434,0)" xlink:href="#aa"/><use transform="matrix(0.04938271604938272,0,0,0.04938271604938272,24.641975308641978,0)" xlink:href="#ai"/><use transform="matrix(0.04938271604938272,0,0,0.04938271604938272,34.51851851851852,0)" xlink:href="#ac"/><use transform="matrix(0.04938271604938272,0,0,0.04938271604938272,39.45679012345679,0)" xlink:href="#aa"/><use transform="matrix(0.04938271604938272,0,0,0.04938271604938272,49.333333333333336,0)" xlink:href="#bf"/></g><g id="t"><use transform="matrix(0.04938271604938272,0,0,0.04938271604938272,0,0)" xlink:href="#bf"/><use transform="matrix(0.04938271604938272,0,0,0.04938271604938272,9.876543209876544,0)" xlink:href="#ai"/><use transform="matrix(0.04938271604938272,0,0,0.04938271604938272,19.75308641975309,0)" xlink:href="#ac"/><use transform="matrix(0.04938271604938272,0,0,0.04938271604938272,24.69135802469136,0)" xlink:href="#aa"/></g><path d="M96-169c-40 0-48 33-48 73s9 75 48 75c24 0 41-14 43-38l32 2c-6 37-31 61-74 61-59 0-76-41-82-99-10-93 101-131 147-64 4 7 5 14 7 22l-32 3c-4-21-16-35-41-35" id="bg"/><path d="M101-251c68 0 85 55 85 127S166 4 100 4C33 4 14-52 14-124c0-73 17-127 87-127zm-1 229c47 0 54-49 54-102s-4-102-53-102c-51 0-55 48-55 102 0 53 5 102 54 102" id="bh"/><path d="M16-82v-28h88v28H16" id="bi"/><g id="u"><use transform="matrix(0.05,0,0,0.05,0,0)" xlink:href="#aq"/><use transform="matrix(0.05,0,0,0.05,5,0)" xlink:href="#aV"/><use transform="matrix(0.05,0,0,0.05,10,0)" xlink:href="#aJ"/><use transform="matrix(0.05,0,0,0.05,20,0)" xlink:href="#ay"/><use transform="matrix(0.05,0,0,0.05,29,0)" xlink:href="#aE"/><use transform="matrix(0.05,0,0,0.05,38,0)" xlink:href="#ay"/><use transform="matrix(0.05,0,0,0.05,47,0)" xlink:href="#aw"/><use transform="matrix(0.05,0,0,0.05,57,0)" xlink:href="#bg"/><use transform="matrix(0.05,0,0,0.05,66,0)" xlink:href="#aA"/><use transform="matrix(0.05,0,0,0.05,71.95,0)" xlink:href="#az"/><use transform="matrix(0.05,0,0,0.05,81.95,0)" xlink:href="#aJ"/><use transform="matrix(0.05,0,0,0.05,91.95,0)" xlink:href="#aV"/><use transform="matrix(0.05,0,0,0.05,96.95,0)" xlink:href="#az"/><use transform="matrix(0.05,0,0,0.05,106.95,0)" xlink:href="#aC"/><use transform="matrix(0.05,0,0,0.05,116.95,0)" xlink:href="#aB"/><use transform="matrix(0.05,0,0,0.05,126.95,0)" xlink:href="#aC"/><use transform="matrix(0.05,0,0,0.05,136.95,0)" xlink:href="#aJ"/><use transform="matrix(0.05,0,0,0.05,146.95,0)" xlink:href="#aV"/><use transform="matrix(0.05,0,0,0.05,151.95,0)" xlink:href="#az"/><use transform="matrix(0.05,0,0,0.05,161.95,0)" xlink:href="#aD"/><use transform="matrix(0.05,0,0,0.05,172.45,0)" xlink:href="#aP"/><use transform="matrix(0.05,0,0,0.05,182.45,0)" xlink:href="#bh"/><use transform="matrix(0.05,0,0,0.05,192.45,0)" xlink:href="#aP"/><use transform="matrix(0.05,0,0,0.05,202.45,0)" xlink:href="#aP"/><use transform="matrix(0.05,0,0,0.05,212.44999999999996,0)" xlink:href="#bi"/><use transform="matrix(0.05,0,0,0.05,218.39999999999998,0)" xlink:href="#bh"/><use transform="matrix(0.05,0,0,0.05,228.39999999999998,0)" xlink:href="#aQ"/><use transform="matrix(0.05,0,0,0.05,238.39999999999998,0)" xlink:href="#bi"/><use transform="matrix(0.05,0,0,0.05,244.34999999999997,0)" xlink:href="#aP"/><use transform="matrix(0.05,0,0,0.05,254.34999999999997,0)" xlink:href="#aU"/></g><path fill="#333" d="M11 0l48-248h34L50-27h125l-5 27H11" id="bj"/><g id="v"><use transform="matrix(0.04938271604938272,0,0,0.04938271604938272,0,0)" xlink:href="#bj"/><use transform="matrix(0.04938271604938272,0,0,0.04938271604938272,9.876543209876544,0)" xlink:href="#ah"/><use transform="matrix(0.04938271604938272,0,0,0.04938271604938272,13.777777777777779,0)" xlink:href="#am"/><use transform="matrix(0.04938271604938272,0,0,0.04938271604938272,22.666666666666668,0)" xlink:href="#ac"/></g><g id="w"><use transform="matrix(0.04938271604938272,0,0,0.04938271604938272,0,0)" xlink:href="#ac"/><use transform="matrix(0.04938271604938272,0,0,0.04938271604938272,4.938271604938272,0)" xlink:href="#ai"/><use transform="matrix(0.04938271604938272,0,0,0.04938271604938272,14.814814814814817,0)" xlink:href="#am"/><use transform="matrix(0.04938271604938272,0,0,0.04938271604938272,23.703703703703706,0)" xlink:href="#bd"/><use transform="matrix(0.04938271604938272,0,0,0.04938271604938272,32.592592592592595,0)" xlink:href="#am"/></g><g id="x"><use transform="matrix(0.04938271604938272,0,0,0.04938271604938272,0,0)" xlink:href="#aj"/><use transform="matrix(0.04938271604938272,0,0,0.04938271604938272,9.876543209876544,0)" xlink:href="#ag"/></g><g id="y"><use transform="matrix(0.04938271604938272,0,0,0.04938271604938272,0,0)" xlink:href="#ac"/><use transform="matrix(0.04938271604938272,0,0,0.04938271604938272,4.938271604938272,0)" xlink:href="#af"/><use transform="matrix(0.04938271604938272,0,0,0.04938271604938272,14.814814814814817,0)" xlink:href="#ai"/><use transform="matrix(0.04938271604938272,0,0,0.04938271604938272,24.69135802469136,0)" xlink:href="#ac"/></g><g id="z"><use transform="matrix(0.05,0,0,0.05,0,0)" xlink:href="#ar"/><use transform="matrix(0.05,0,0,0.05,3.95,0)" xlink:href="#au"/><use transform="matrix(0.05,0,0,0.05,7.9,0)" xlink:href="#ay"/><use transform="matrix(0.05,0,0,0.05,16.9,0)" xlink:href="#aV"/></g><g id="A"><use transform="matrix(0.05,0,0,0.05,0,0)" xlink:href="#aV"/><use transform="matrix(0.05,0,0,0.05,5,0)" xlink:href="#aJ"/><use transform="matrix(0.05,0,0,0.05,15,0)" xlink:href="#ay"/><use transform="matrix(0.05,0,0,0.05,24,0)" xlink:href="#aE"/><use transform="matrix(0.05,0,0,0.05,33,0)" xlink:href="#ay"/></g><path d="M30-248c87 1 191-15 191 75 0 78-77 80-158 76V0H30v-248zm33 125c57 0 124 11 124-50 0-59-68-47-124-48v98" id="bk"/><path d="M140-251c81 0 123 46 123 126C263-46 219 4 140 4 59 4 17-45 17-125s42-126 123-126zm0 227c63 0 89-41 89-101s-29-99-89-99c-61 0-89 39-89 99S79-25 140-24" id="bl"/><path d="M185-189c-5-48-123-54-124 2 14 75 158 14 163 119 3 78-121 87-175 55-17-10-28-26-33-46l33-7c5 56 141 63 141-1 0-78-155-14-162-118-5-82 145-84 179-34 5 7 8 16 11 25" id="bm"/><g id="B"><use transform="matrix(0.05,0,0,0.05,0,0)" xlink:href="#bk"/><use transform="matrix(0.05,0,0,0.05,12,0)" xlink:href="#bl"/><use transform="matrix(0.05,0,0,0.05,26,0)" xlink:href="#bm"/><use transform="matrix(0.05,0,0,0.05,38,0)" xlink:href="#ap"/></g><g id="C"><use transform="matrix(0.05,0,0,0.05,0,0)" xlink:href="#aq"/><use transform="matrix(0.05,0,0,0.05,5,0)" xlink:href="#aV"/><use transform="matrix(0.05,0,0,0.05,10,0)" xlink:href="#aJ"/><use transform="matrix(0.05,0,0,0.05,20,0)" xlink:href="#ay"/><use transform="matrix(0.05,0,0,0.05,29,0)" xlink:href="#aE"/><use transform="matrix(0.05,0,0,0.05,38,0)" xlink:href="#ay"/></g><path d="M39-94c74 12-11 154 75 146v23c-44 4-70-10-70-52C44-23 55-84 6-82v-22c81 4-7-162 84-157h24v23c-82-15-2 131-75 144" id="bn"/><path d="M109-170H84l-4-78h32zm-65 0H19l-4-78h33" id="bo"/><path d="M33-154v-36h34v36H33zM33 0v-36h34V0H33" id="bp"/><g id="D"><use transform="matrix(0.05,0,0,0.05,0,0)" xlink:href="#bn"/><use transform="matrix(0.05,0,0,0.05,6,0)" xlink:href="#bo"/><use transform="matrix(0.05,0,0,0.05,12.350000000000001,0)" xlink:href="#aC"/><use transform="matrix(0.05,0,0,0.05,22.35,0)" xlink:href="#az"/><use transform="matrix(0.05,0,0,0.05,32.35,0)" xlink:href="#aV"/><use transform="matrix(0.05,0,0,0.05,37.35,0)" xlink:href="#aJ"/><use transform="matrix(0.05,0,0,0.05,47.35,0)" xlink:href="#au"/><use transform="matrix(0.05,0,0,0.05,51.300000000000004,0)" xlink:href="#ar"/><use transform="matrix(0.05,0,0,0.05,55.25,0)" xlink:href="#bo"/><use transform="matrix(0.05,0,0,0.05,61.6,0)" xlink:href="#bp"/></g><g id="E"><use transform="matrix(0.05,0,0,0.05,0,0)" xlink:href="#bo"/><use transform="matrix(0.05,0,0,0.05,6.3500000000000005,0)" xlink:href="#av"/><use transform="matrix(0.05,0,0,0.05,16.35,0)" xlink:href="#az"/><use transform="matrix(0.05,0,0,0.05,26.35,0)" xlink:href="#aK"/></g><path d="M76-40C78 24 84 88 6 75V52C86 64 9-79 80-94c-40-6-34-59-34-106 1-29-11-41-40-38v-23c44-4 70 10 70 52 0 47-12 108 38 105v22c-26 1-39 14-38 42" id="bq"/><g id="F"><use transform="matrix(0.05,0,0,0.05,0,0)" xlink:href="#aV"/><use transform="matrix(0.05,0,0,0.05,5,0)" xlink:href="#aJ"/><use transform="matrix(0.05,0,0,0.05,15,0)" xlink:href="#ay"/><use transform="matrix(0.05,0,0,0.05,24,0)" xlink:href="#aE"/><use transform="matrix(0.05,0,0,0.05,33,0)" xlink:href="#bo"/><use transform="matrix(0.05,0,0,0.05,39.35,0)" xlink:href="#bq"/></g><path fill="#333" d="M125-24c46 0 70-25 89-51l25 16C214-24 183 4 123 4 8 4-5-146 60-208c32-50 158-61 191-5 5 7 9 14 11 22l-32 10c-9-28-33-43-69-43-74 0-108 51-108 125 0 46 24 75 72 75" id="br"/><g id="G"><use transform="matrix(0.04938271604938272,0,0,0.04938271604938272,0,0)" xlink:href="#br"/><use transform="matrix(0.04938271604938272,0,0,0.04938271604938272,12.790123456790125,0)" xlink:href="#aZ"/><use transform="matrix(0.04938271604938272,0,0,0.04938271604938272,18.666666666666668,0)" xlink:href="#aa"/><use transform="matrix(0.04938271604938272,0,0,0.04938271604938272,28.543209876543212,0)" xlink:href="#ai"/><use transform="matrix(0.04938271604938272,0,0,0.04938271604938272,38.41975308641976,0)" xlink:href="#ac"/><use transform="matrix(0.04938271604938272,0,0,0.04938271604938272,43.35802469135803,0)" xlink:href="#aa"/></g><use transform="matrix(0.04938271604938272,0,0,0.04938271604938272,0,0)" xlink:href="#ai" id="H"/><g id="I"><use transform="matrix(0.04938271604938272,0,0,0.04938271604938272,0,0)" xlink:href="#ag"/><use transform="matrix(0.04938271604938272,0,0,0.04938271604938272,9.876543209876544,0)" xlink:href="#aa"/><use transform="matrix(0.04938271604938272,0,0,0.04938271604938272,19.75308641975309,0)" xlink:href="#be"/></g><g id="J"><use transform="matrix(0.04938271604938272,0,0,0.04938271604938272,0,0)" xlink:href="#ac"/><use transform="matrix(0.04938271604938272,0,0,0.04938271604938272,4.938271604938272,0)" xlink:href="#ai"/><use transform="matrix(0.04938271604938272,0,0,0.04938271604938272,14.814814814814817,0)" xlink:href="#am"/><use transform="matrix(0.04938271604938272,0,0,0.04938271604938272,23.703703703703706,0)" xlink:href="#bd"/></g><g id="K"><use transform="matrix(0.05,0,0,0.05,0,0)" xlink:href="#av"/><use transform="matrix(0.05,0,0,0.05,10,0)" xlink:href="#az"/><use transform="matrix(0.05,0,0,0.05,20,0)" xlink:href="#aK"/></g><g id="L"><use transform="matrix(0.05,0,0,0.05,0,0)" xlink:href="#aV"/><use transform="matrix(0.05,0,0,0.05,5,0)" xlink:href="#aJ"/><use transform="matrix(0.05,0,0,0.05,15,0)" xlink:href="#ay"/><use transform="matrix(0.05,0,0,0.05,24,0)" xlink:href="#aE"/></g><path fill="#333" d="M173 0L80-213 41 0H11l48-248h37l94 214 40-214h30L212 0h-39" id="bs"/><path fill="#333" d="M6 0l50-261h32L37 0H6" id="bt"/><path fill="#333" d="M198-190L69 30C53 58 25 83-20 72c4-11-1-27 19-22 33-1 43-29 59-52L20-190h32L79-34l84-156h35" id="bu"/><g id="M"><use transform="matrix(0.04938271604938272,0,0,0.04938271604938272,0,0)" xlink:href="#bs"/><use transform="matrix(0.04938271604938272,0,0,0.04938271604938272,12.790123456790125,0)" xlink:href="#aa"/><use transform="matrix(0.04938271604938272,0,0,0.04938271604938272,22.66666666666667,0)" xlink:href="#be"/><use transform="matrix(0.04938271604938272,0,0,0.04938271604938272,35.4567901234568,0)" xlink:href="#bt"/><use transform="matrix(0.04938271604938272,0,0,0.04938271604938272,39.35802469135803,0)" xlink:href="#bu"/></g><g id="N"><use transform="matrix(0.04938271604938272,0,0,0.04938271604938272,0,0)" xlink:href="#ab"/><use transform="matrix(0.04938271604938272,0,0,0.04938271604938272,8.88888888888889,0)" xlink:href="#aZ"/><use transform="matrix(0.04938271604938272,0,0,0.04938271604938272,14.765432098765434,0)" xlink:href="#aa"/><use transform="matrix(0.04938271604938272,0,0,0.04938271604938272,24.641975308641978,0)" xlink:href="#ai"/><use transform="matrix(0.04938271604938272,0,0,0.04938271604938272,34.51851851851852,0)" xlink:href="#ac"/><use transform="matrix(0.04938271604938272,0,0,0.04938271604938272,39.45679012345679,0)" xlink:href="#aa"/><use transform="matrix(0.04938271604938272,0,0,0.04938271604938272,49.333333333333336,0)" xlink:href="#bf"/></g></defs></g></svg>